<svg xmlns="http://www.w3.org/2000/svg" viewBox="0 0 24 24" fill="#1b5e20">
  <path d="M12,2C6.47,2,2,6.47,2,12s4.47,10,10,10,10-4.47,10-10S17.53,2,12,2Zm5.5,14c-1.1,0-2-.9-2-2,0-1.1.9-2,2-2s2,.9,2,2-.9,2-2,2Zm-11,0c-1.1,0-2-.9-2-2,0-1.1.9-2,2-2s2,.9,2,2-.9,2-2,2Zm11-6.5c-.83,0-1.5-.67-1.5-1.5s.67-1.5,1.5-1.5,1.5.67,1.5,1.5-.67,1.5-1.5,1.5Zm-11,0c-.83,0-1.5-.67-1.5-1.5s.67-1.5,1.5-1.5,1.5.67,1.5,1.5-.67,1.5-1.5,1.5Z"/>
  <path d="M12,18c-3.31,0-6-2.69-6-6s2.69-6,6-6,6,2.69,6,6-2.69,6-6,6Zm0-10c-2.21,0-4,1.79-4,4s1.79,4,4,4,4-1.79,4-4-1.79-4-4-4Z"/>
</svg>